<svg id="Layer_1" data-name="Layer 1" xmlns="http://www.w3.org/2000/svg" viewBox="0 0 142.34 67.15"><defs><style>.cls-1{fill:#4a57a6;}.cls-2{fill:#fff;}</style></defs><title>charm_alarm_logo</title><path class="cls-1" d="M268.71,411.27l-3.48-3.14q-6-5.39-8.64-8t-6-6.4a25.45,25.45,0,0,1-4.55-6.9,16.91,16.91,0,0,1-1.23-6.34,12.77,12.77,0,0,1,3.76-9.32,12.63,12.63,0,0,1,9.37-3.82,13.51,13.51,0,0,1,10.78,5.05,13.5,13.5,0,0,1,10.78-5.05,12.63,12.63,0,0,1,9.37,3.82,12.78,12.78,0,0,1,3.76,9.32,17.31,17.31,0,0,1-2.92,9.09,46.62,46.62,0,0,1-6.34,8.2q-3.43,3.48-11.17,10.44Z" transform="translate(-236.09 -363.48)"/><path class="cls-1" d="M243.36,363.48a17,17,0,0,0-1.46,1.2,17.87,17.87,0,0,0-5.82,12.63h3a14.75,14.75,0,0,1,4.85-10.43,14.23,14.23,0,0,1,1.17-1Z" transform="translate(-236.09 -363.48)"/><path class="cls-2" d="M277.63,376.46v22.45h9.66V376.46h2v22.45H299V376.46h2v24.17H275.57V376.46h2.06Z" transform="translate(-236.09 -363.48)"/><path class="cls-2" d="M322.5,393.85h-11L309,400.64H306.9L316,376.46H318l9.15,24.17H325Zm-10.34-1.73h9.7L317,379Z" transform="translate(-236.09 -363.48)"/><path class="cls-2" d="M335,390.79v9.84h-2V376.46h8.23a8.68,8.68,0,0,1,6,1.93,7.57,7.57,0,0,1,.08,10.55,8.93,8.93,0,0,1-6.08,1.85H335Zm0-1.73h6.19a6.54,6.54,0,0,0,4.53-1.41,5,5,0,0,0,1.56-3.94,5.28,5.28,0,0,0-1.55-4,6.23,6.23,0,0,0-4.41-1.52H335v10.87Z" transform="translate(-236.09 -363.48)"/><path class="cls-2" d="M357.84,376.46l8.92,21.33,8.95-21.33h2.72v24.17h-2V390.11l0.17-10.79-9,21.32H366l-9-21.23L357.18,390v10.59h-2V376.46h2.71Z" transform="translate(-236.09 -363.48)"/><path class="cls-2" d="M288.95,425.24h-8.64l-1.94,5.4h-2.8L283.44,410h2.38l7.89,20.62h-2.79ZM281.13,423h7l-3.51-9.64Z" transform="translate(-236.09 -363.48)"/><path class="cls-2" d="M314.48,410v20.62h-2.72V412.24h-7.39L304,420.42a27.56,27.56,0,0,1-.84,6.18,6,6,0,0,1-1.85,3,5.2,5.2,0,0,1-3.26,1h-0.89v-2.22l0.57,0a3,3,0,0,0,2-.86,5.16,5.16,0,0,0,1.08-2.41,32.43,32.43,0,0,0,.52-5.1l0.42-10h12.7Z" transform="translate(-236.09 -363.48)"/><path class="cls-2" d="M331.38,425.24h-8.64l-1.94,5.4H318L325.87,410h2.38l7.89,20.62h-2.79ZM323.57,423h7l-3.51-9.64Z" transform="translate(-236.09 -363.48)"/><path class="cls-2" d="M342.39,422.56v8.07h-2.72V410h7.6a7.64,7.64,0,0,1,5.3,1.73,5.86,5.86,0,0,1,1.92,4.57,5.78,5.78,0,0,1-1.88,4.62,8,8,0,0,1-5.37,1.62h-4.86Zm0-2.22h4.89a4.88,4.88,0,0,0,3.34-1,3.76,3.76,0,0,0,1.16-3,3.89,3.89,0,0,0-1.16-3,4.57,4.57,0,0,0-3.19-1.15h-5v8.1Z" transform="translate(-236.09 -363.48)"/><path class="cls-2" d="M361.42,410l6.74,16.82L374.9,410h3.53v20.62h-2.72v-8l0.25-8.67-6.77,16.69h-2.08L360.36,414l0.27,8.62v8h-2.72V410h3.51Z" transform="translate(-236.09 -363.48)"/></svg>